<svg xmlns="http://www.w3.org/2000/svg" width="640" height="460" viewBox="0 0 640 460"><defs><linearGradient id="glaze" x1="0" y1="0" x2="1" y2="1"><stop stop-color="#FFFDF8"/><stop offset="1" stop-color="#F1E2DA"/></linearGradient><linearGradient id="arc" x1="0" y1="0" x2="1" y2="1"><stop stop-color="#FFFDF8"/><stop offset="0.55" stop-color="#F1E2DA"/><stop offset="1" stop-color="#C87560" stop-opacity=".38"/></linearGradient></defs><rect width="640" height="460" fill="url(#glaze)"/><path d="M146 330V140H214" fill="none" stroke="#C87560" stroke-width="2" opacity=".55"/><path d="M146 352H246" fill="none" stroke="#C87560" stroke-width="2" opacity=".55"/><path d="M402 119A134 134 0 0 1 536 253H500A98 98 0 0 0 402 155Z" fill="#C87560" opacity=".11" transform="translate(0 6)"/><path d="M402 113A134 134 0 0 1 536 247H500A98 98 0 0 0 402 149Z" fill="url(#arc)" stroke="#FFFDF8" stroke-width="1.3"/><path d="M402 113A134 134 0 0 1 536 247" fill="none" stroke="#C87560" stroke-width="1" opacity=".35"/><circle cx="396" cy="327" r="5" fill="#C87560" opacity=".55"/></svg>
