<svg xmlns="http://www.w3.org/2000/svg" width="480" height="300" viewBox="0 0 480 300" role="img" aria-labelledby="scene-literati-bank-title"><title id="scene-literati-bank-title">文人疏岸</title><rect x="0" y="0" width="480" height="300" rx="0" fill="#f3eee2" stroke="none"/><path d="M0 253q65-49 132-6t146-8 202 8v53H0Z" fill="#b9c7b5" stroke="none" stroke-width="3" stroke-linecap="round" stroke-linejoin="round"/><g fill="none" stroke="#293e37" stroke-width="5" stroke-linecap="round" stroke-linejoin="round"><path d="M71 268q16-56 5-107M77 207l-30-38m32 14 35-41m-38 16-5-39M43 172l-15-14m22 19-8-24m69-9 10-11"/></g><path d="M335 253h38l-8 8h-22Z" fill="#293e37" stroke="none" stroke-width="3" stroke-linecap="round" stroke-linejoin="round"/><g fill="none" stroke="#97afa2" stroke-width="1" stroke-linecap="round" stroke-linejoin="round"><path d="M247 241h61m67-9h59"/></g></svg>
