<svg xmlns="http://www.w3.org/2000/svg" width="480" height="300" viewBox="0 0 480 300" role="img" aria-labelledby="scene-bluegreen-ridges-title"><title id="scene-bluegreen-ridges-title">青绿叠嶂</title><rect x="0" y="0" width="480" height="300" rx="0" fill="#f3eee2" stroke="none"/><path d="M0 213 72 84l59 95 82-143 65 125 73-79 129 131v87H0Z" fill="#a0baa6" stroke="none" stroke-width="3" stroke-linecap="round" stroke-linejoin="round"/><path d="M0 258 93 163l68 86 75-100 62 73 77-84 105 137v25H0Z" fill="#4f8c7f" stroke="none" stroke-width="3" stroke-linecap="round" stroke-linejoin="round"/><path d="M0 282q82-60 151-30t169-12 160 39v21H0Z" fill="#315e59" stroke="none" stroke-width="3" stroke-linecap="round" stroke-linejoin="round"/><circle cx="363" cy="53" r="21" fill="#ceae69" stroke="none"/><path d="M268 300q-15-41-46-64t-23-42" fill="none" stroke="#e6d8ad" stroke-width="10" stroke-linecap="round" stroke-linejoin="round"/></svg>
